{
	"asset":{
		"generator":"Khronos glTF Blender I/O v4.3.47",
		"version":"2.0"
	},
	"extensionsUsed":[
		"KHR_lights_punctual",
		"KHR_materials_emissive_strength"
	],
	"extensionsRequired":[
		"KHR_lights_punctual"
	],
	"extensions":{
		"KHR_lights_punctual":{
			"lights":[
				{
					"color":[
						1,
						1,
						1
					],
					"intensity":54351.41306588226,
					"type":"point",
					"name":"Light"
				}
			]
		}
	},
	"scene":0,
	"scenes":[
		{
			"name":"Scene",
			"nodes":[
				0,
				1,
				2,
				3,
				4,
				5,
				6
			]
		}
	],
	"nodes":[
		{
			"extensions":{
				"KHR_lights_punctual":{
					"light":0
				}
			},
			"name":"Light",
			"rotation":[
				-0.28416627645492554,
				0.7269423007965088,
				0.34203392267227173,
				0.5232754945755005
			],
			"translation":[
				4.076245307922363,
				5.903861999511719,
				-1.0054539442062378
			]
		},
		{
			"camera":0,
			"name":"Camera",
			"rotation":[
				-0.20997299253940582,
				0.3857799470424652,
				0.09062844514846802,
				0.8937962055206299
			],
			"translation":[
				7.358891487121582,
				4.958309173583984,
				6.925790786743164
			]
		},
		{
			"mesh":0,
			"name":"Sphere",
			"rotation":[
				0.0958457663655281,
				0,
				0,
				0.9953961968421936
			]
		},
		{
			"name":"Point",
			"rotation":[
				-0.7071068286895752,
				0,
				0,
				0.7071068286895752
			]
		},
		{
			"mesh":1,
			"name":"Plane",
			"rotation":[
				0.6318169236183167,
				-0.6317940950393677,
				0.3561752438545227,
				0.2734645903110504
			],
			"scale":[
				0.46000009775161743,
				1.1500000953674316,
				0.3800000846385956
			],
			"translation":[
				-0.009999999776482582,
				0.8199999928474426,
				0.009999999776482582
			]
		},
		{
			"mesh":2,
			"name":"Text",
			"rotation":[
				0.5411762595176697,
				0.49434834718704224,
				-0.4316224753856659,
				0.5257851481437683
			],
			"scale":[
				0.23871558904647827,
				0.3625246286392212,
				0.3425246775150299
			],
			"translation":[
				0.9327301383018494,
				0.7073543071746826,
				0.5007632970809937
			]
		},
		{
			"mesh":3,
			"name":"Plane.001",
			"rotation":[
				0.1946636587381363,
				0.19709512591362,
				0.5870926380157471,
				0.7606456279754639
			],
			"scale":[
				0.2698344588279724,
				0.2698338031768799,
				0.2698338031768799
			],
			"translation":[
				-1.6980650424957275,
				0.0658000037074089,
				-0.06421364843845367
			]
		}
	],
	"cameras":[
		{
			"name":"Camera",
			"perspective":{
				"aspectRatio":1.7777777777777777,
				"yfov":0.39959652046304894,
				"zfar":100,
				"znear":0.10000000149011612
			},
			"type":"perspective"
		}
	],
	"animations":[
		{
			"channels":[
				{
					"sampler":0,
					"target":{
						"node":2,
						"path":"rotation"
					}
				}
			],
			"name":"SphereAction",
			"samplers":[
				{
					"input":61,
					"interpolation":"LINEAR",
					"output":62
				}
			]
		},
		{
			"channels":[
				{
					"sampler":0,
					"target":{
						"node":6,
						"path":"translation"
					}
				},
				{
					"sampler":1,
					"target":{
						"node":6,
						"path":"rotation"
					}
				}
			],
			"name":"Links",
			"samplers":[
				{
					"input":63,
					"interpolation":"LINEAR",
					"output":64
				},
				{
					"input":65,
					"interpolation":"STEP",
					"output":66
				}
			]
		}
	],
	"materials":[
		{
			"doubleSided":true,
			"name":"TopLayer"
		},
		{
			"doubleSided":true,
			"name":"ground"
		},
		{
			"doubleSided":true,
			"emissiveFactor":[
				0.8488565683364868,
				0.7299752235412598,
				0.7515885829925537
			],
			"name":"Under",
			"pbrMetallicRoughness":{
				"baseColorFactor":[
					0,
					0,
					0,
					1
				]
			}
		},
		{
			"name":"Opener"
		},
		{
			"doubleSided":true,
			"name":"Front image"
		},
		{
			"doubleSided":true,
			"emissiveFactor":[
				1,
				1,
				1
			],
			"extensions":{
				"KHR_materials_emissive_strength":{
					"emissiveStrength":1.8450709673759178
				}
			},
			"name":"Material.002",
			"pbrMetallicRoughness":{
				"baseColorFactor":[
					0,
					0,
					0,
					1
				]
			}
		},
		{
			"doubleSided":true,
			"emissiveFactor":[
				1,
				1,
				1
			],
			"extensions":{
				"KHR_materials_emissive_strength":{
					"emissiveStrength":17.799999237060547
				}
			},
			"name":"Material.003",
			"pbrMetallicRoughness":{
				"baseColorFactor":[
					0,
					0,
					0,
					1
				]
			}
		},
		{
			"doubleSided":true,
			"name":"Material.004"
		},
		{
			"doubleSided":true,
			"name":"Material.005",
			"pbrMetallicRoughness":{
				"baseColorFactor":[
					0.003992056008428335,
					0.003992056008428335,
					0.003992056008428335,
					1
				],
				"roughnessFactor":0.5
			}
		},
		{
			"doubleSided":true,
			"name":"face.001",
			"pbrMetallicRoughness":{
				"baseColorFactor":[
					0.800000011920929,
					0.800000011920929,
					0.800000011920929,
					1
				],
				"metallicFactor":0,
				"roughnessFactor":0.5
			}
		},
		{
			"doubleSided":true,
			"name":"Material.001",
			"pbrMetallicRoughness":{
				"baseColorFactor":[
					0.004590569529682398,
					0.004590569529682398,
					0.004590569529682398,
					1
				],
				"metallicFactor":0.8425925970077515,
				"roughnessFactor":0.5
			}
		},
		{
			"doubleSided":true,
			"name":"face",
			"pbrMetallicRoughness":{
				"baseColorFactor":[
					0.800000011920929,
					0.800000011920929,
					0.800000011920929,
					1
				],
				"metallicFactor":0,
				"roughnessFactor":0.5
			}
		},
		{
			"doubleSided":true,
			"name":"Material",
			"pbrMetallicRoughness":{
				"baseColorFactor":[
					0.006685806438326836,
					0.006685806438326836,
					0.006685806438326836,
					1
				],
				"metallicFactor":0,
				"roughnessFactor":0.5
			}
		},
		{
			"doubleSided":true,
			"name":"face.003",
			"pbrMetallicRoughness":{
				"baseColorFactor":[
					0.800000011920929,
					0.800000011920929,
					0.800000011920929,
					1
				],
				"metallicFactor":0,
				"roughnessFactor":0.5
			}
		},
		{
			"doubleSided":true,
			"name":"Material.006",
			"pbrMetallicRoughness":{
				"baseColorFactor":[
					0.0045904964208602905,
					0.0045904964208602905,
					0.0045904964208602905,
					1
				],
				"roughnessFactor":0.5
			}
		},
		{
			"doubleSided":true,
			"name":"face.002",
			"pbrMetallicRoughness":{
				"baseColorFactor":[
					0.800000011920929,
					0.800000011920929,
					0.800000011920929,
					1
				],
				"metallicFactor":0,
				"roughnessFactor":0.5
			}
		}
	],
	"meshes":[
		{
			"name":"Sphere",
			"primitives":[
				{
					"attributes":{
						"POSITION":0,
						"NORMAL":1,
						"TEXCOORD_0":2
					},
					"indices":3,
					"material":0
				},
				{
					"attributes":{
						"POSITION":4,
						"NORMAL":5,
						"TEXCOORD_0":6
					},
					"indices":7,
					"material":1
				},
				{
					"attributes":{
						"POSITION":8,
						"NORMAL":9,
						"TEXCOORD_0":10
					},
					"indices":11,
					"material":2
				},
				{
					"attributes":{
						"POSITION":12,
						"NORMAL":13,
						"TEXCOORD_0":14
					},
					"indices":15,
					"material":3
				}
			]
		},
		{
			"name":"Plane",
			"primitives":[
				{
					"attributes":{
						"POSITION":16,
						"NORMAL":17,
						"TEXCOORD_0":18
					},
					"indices":19,
					"material":4
				},
				{
					"attributes":{
						"POSITION":20,
						"NORMAL":21,
						"TEXCOORD_0":22
					},
					"indices":23,
					"material":5
				},
				{
					"attributes":{
						"POSITION":24,
						"NORMAL":25,
						"TEXCOORD_0":26
					},
					"indices":27,
					"material":6
				}
			]
		},
		{
			"name":"Text",
			"primitives":[
				{
					"attributes":{
						"POSITION":28,
						"NORMAL":29,
						"TEXCOORD_0":30
					},
					"indices":31,
					"material":7
				}
			]
		},
		{
			"name":"Plane.002",
			"primitives":[
				{
					"attributes":{
						"POSITION":32,
						"NORMAL":33,
						"TEXCOORD_0":34
					},
					"indices":35,
					"material":8
				},
				{
					"attributes":{
						"POSITION":36,
						"NORMAL":37,
						"TEXCOORD_0":38
					},
					"indices":39,
					"material":9
				},
				{
					"attributes":{
						"POSITION":40,
						"NORMAL":41,
						"TEXCOORD_0":42
					},
					"indices":43,
					"material":10
				},
				{
					"attributes":{
						"POSITION":44,
						"NORMAL":45,
						"TEXCOORD_0":46
					},
					"indices":47,
					"material":11
				},
				{
					"attributes":{
						"POSITION":48,
						"NORMAL":49,
						"TEXCOORD_0":50
					},
					"indices":43,
					"material":12
				},
				{
					"attributes":{
						"POSITION":51,
						"NORMAL":52,
						"TEXCOORD_0":53
					},
					"indices":47,
					"material":13
				},
				{
					"attributes":{
						"POSITION":54,
						"NORMAL":55,
						"TEXCOORD_0":56
					},
					"indices":57,
					"material":14
				},
				{
					"attributes":{
						"POSITION":58,
						"NORMAL":59,
						"TEXCOORD_0":60
					},
					"indices":47,
					"material":15
				}
			]
		}
	],
	"accessors":[
		{
			"bufferView":0,
			"componentType":5126,
			"count":3849,
			"max":[
				1.1581193208694458,
				0.1855408400297165,
				1.158118724822998
			],
			"min":[
				-1.1581183671951294,
				-0.7054477334022522,
				-1.1581190824508667
			],
			"type":"VEC3"
		},
		{
			"bufferView":1,
			"componentType":5126,
			"count":3849,
			"type":"VEC3"
		},
		{
			"bufferView":2,
			"componentType":5126,
			"count":3849,
			"type":"VEC2"
		},
		{
			"bufferView":3,
			"componentType":5123,
			"count":18972,
			"type":"SCALAR"
		},
		{
			"bufferView":4,
			"componentType":5126,
			"count":299,
			"max":[
				1.1581193208694458,
				0.02954818122088909,
				1.158118724822998
			],
			"min":[
				-1.1581183671951294,
				-0.7054477334022522,
				-1.1581190824508667
			],
			"type":"VEC3"
		},
		{
			"bufferView":5,
			"componentType":5126,
			"count":299,
			"type":"VEC3"
		},
		{
			"bufferView":6,
			"componentType":5126,
			"count":299,
			"type":"VEC2"
		},
		{
			"bufferView":7,
			"componentType":5123,
			"count":1059,
			"type":"SCALAR"
		},
		{
			"bufferView":8,
			"componentType":5126,
			"count":367,
			"max":[
				0.6024630665779114,
				-0.2420194000005722,
				0.6357178688049316
			],
			"min":[
				-0.6110218167304993,
				-0.6813087463378906,
				-0.700951099395752
			],
			"type":"VEC3"
		},
		{
			"bufferView":9,
			"componentType":5126,
			"count":367,
			"type":"VEC3"
		},
		{
			"bufferView":10,
			"componentType":5126,
			"count":367,
			"type":"VEC2"
		},
		{
			"bufferView":11,
			"componentType":5123,
			"count":1197,
			"type":"SCALAR"
		},
		{
			"bufferView":12,
			"componentType":5126,
			"count":132,
			"max":[
				0.44483712315559387,
				0.18553949892520905,
				0.4448365271091461
			],
			"min":[
				-0.44483593106269836,
				-0.00670175114646554,
				-0.4448370635509491
			],
			"type":"VEC3"
		},
		{
			"bufferView":13,
			"componentType":5126,
			"count":132,
			"type":"VEC3"
		},
		{
			"bufferView":14,
			"componentType":5126,
			"count":132,
			"type":"VEC2"
		},
		{
			"bufferView":15,
			"componentType":5123,
			"count":204,
			"type":"SCALAR"
		},
		{
			"bufferView":16,
			"componentType":5126,
			"count":4,
			"max":[
				1,
				-0.098999984562397,
				1
			],
			"min":[
				-1,
				-0.098999984562397,
				-1
			],
			"type":"VEC3"
		},
		{
			"bufferView":17,
			"componentType":5126,
			"count":4,
			"type":"VEC3"
		},
		{
			"bufferView":18,
			"componentType":5126,
			"count":4,
			"type":"VEC2"
		},
		{
			"bufferView":19,
			"componentType":5123,
			"count":6,
			"type":"SCALAR"
		},
		{
			"bufferView":20,
			"componentType":5126,
			"count":232,
			"max":[
				1,
				0.009999997913837433,
				1
			],
			"min":[
				-1,
				-0.098999984562397,
				-1
			],
			"type":"VEC3"
		},
		{
			"bufferView":21,
			"componentType":5126,
			"count":232,
			"type":"VEC3"
		},
		{
			"bufferView":22,
			"componentType":5126,
			"count":232,
			"type":"VEC2"
		},
		{
			"bufferView":23,
			"componentType":5123,
			"count":348,
			"type":"SCALAR"
		},
		{
			"bufferView":24,
			"componentType":5126,
			"count":4,
			"max":[
				1,
				0.009999997913837433,
				1
			],
			"min":[
				-1,
				0.009999997913837433,
				-1
			],
			"type":"VEC3"
		},
		{
			"bufferView":25,
			"componentType":5126,
			"count":4,
			"type":"VEC3"
		},
		{
			"bufferView":26,
			"componentType":5126,
			"count":4,
			"type":"VEC2"
		},
		{
			"bufferView":27,
			"componentType":5123,
			"count":6,
			"type":"SCALAR"
		},
		{
			"bufferView":28,
			"componentType":5126,
			"count":33614,
			"max":[
				1.8680000305175781,
				0.26999998092651367,
				0.039001040160655975
			],
			"min":[
				-0.045504823327064514,
				-0.26999998092651367,
				-0.7120000123977661
			],
			"type":"VEC3"
		},
		{
			"bufferView":29,
			"componentType":5126,
			"count":33614,
			"type":"VEC3"
		},
		{
			"bufferView":30,
			"componentType":5126,
			"count":33614,
			"type":"VEC2"
		},
		{
			"bufferView":31,
			"componentType":5123,
			"count":174348,
			"type":"SCALAR"
		},
		{
			"bufferView":32,
			"componentType":5126,
			"count":12,
			"max":[
				0.664142370223999,
				-0.1519911289215088,
				1.0379714965820312
			],
			"min":[
				-1.3358575105667114,
				-0.28199100494384766,
				-0.9620285034179688
			],
			"type":"VEC3"
		},
		{
			"bufferView":33,
			"componentType":5126,
			"count":12,
			"type":"VEC3"
		},
		{
			"bufferView":34,
			"componentType":5126,
			"count":12,
			"type":"VEC2"
		},
		{
			"bufferView":35,
			"componentType":5123,
			"count":18,
			"type":"SCALAR"
		},
		{
			"bufferView":36,
			"componentType":5126,
			"count":12,
			"max":[
				0.664142370223999,
				-0.1519911289215088,
				1.0379714965820312
			],
			"min":[
				-1.3358575105667114,
				-0.28199100494384766,
				-0.9620285034179688
			],
			"type":"VEC3"
		},
		{
			"bufferView":37,
			"componentType":5126,
			"count":12,
			"type":"VEC3"
		},
		{
			"bufferView":38,
			"componentType":5126,
			"count":12,
			"type":"VEC2"
		},
		{
			"bufferView":39,
			"componentType":5123,
			"count":18,
			"type":"SCALAR"
		},
		{
			"bufferView":40,
			"componentType":5126,
			"count":16,
			"max":[
				2.7308928966522217,
				-1.6201996803283691,
				9.263448715209961
			],
			"min":[
				0.34153056144714355,
				-2.9892756938934326,
				7.16546630859375
			],
			"type":"VEC3"
		},
		{
			"bufferView":41,
			"componentType":5126,
			"count":16,
			"type":"VEC3"
		},
		{
			"bufferView":42,
			"componentType":5126,
			"count":16,
			"type":"VEC2"
		},
		{
			"bufferView":43,
			"componentType":5123,
			"count":24,
			"type":"SCALAR"
		},
		{
			"bufferView":44,
			"componentType":5126,
			"count":8,
			"max":[
				2.7308928966522217,
				-1.6201996803283691,
				9.263448715209961
			],
			"min":[
				0.34153056144714355,
				-2.9892756938934326,
				7.16546630859375
			],
			"type":"VEC3"
		},
		{
			"bufferView":45,
			"componentType":5126,
			"count":8,
			"type":"VEC3"
		},
		{
			"bufferView":46,
			"componentType":5126,
			"count":8,
			"type":"VEC2"
		},
		{
			"bufferView":47,
			"componentType":5123,
			"count":12,
			"type":"SCALAR"
		},
		{
			"bufferView":48,
			"componentType":5126,
			"count":16,
			"max":[
				5.55292272567749,
				-8.456544876098633,
				6.99293327331543
			],
			"min":[
				3.6021745204925537,
				-10.627050399780273,
				4.980233192443848
			],
			"type":"VEC3"
		},
		{
			"bufferView":49,
			"componentType":5126,
			"count":16,
			"type":"VEC3"
		},
		{
			"bufferView":50,
			"componentType":5126,
			"count":16,
			"type":"VEC2"
		},
		{
			"bufferView":51,
			"componentType":5126,
			"count":8,
			"max":[
				5.55292272567749,
				-8.456544876098633,
				6.99293327331543
			],
			"min":[
				3.6021745204925537,
				-10.627050399780273,
				4.980233192443848
			],
			"type":"VEC3"
		},
		{
			"bufferView":52,
			"componentType":5126,
			"count":8,
			"type":"VEC3"
		},
		{
			"bufferView":53,
			"componentType":5126,
			"count":8,
			"type":"VEC2"
		},
		{
			"bufferView":54,
			"componentType":5126,
			"count":16,
			"max":[
				3.3641812801361084,
				-5.628622531890869,
				-2.1923155784606934
			],
			"min":[
				1.1447408199310303,
				-8.420510292053223,
				-4.123311996459961
			],
			"type":"VEC3"
		},
		{
			"bufferView":55,
			"componentType":5126,
			"count":16,
			"type":"VEC3"
		},
		{
			"bufferView":56,
			"componentType":5126,
			"count":16,
			"type":"VEC2"
		},
		{
			"bufferView":57,
			"componentType":5123,
			"count":24,
			"type":"SCALAR"
		},
		{
			"bufferView":58,
			"componentType":5126,
			"count":8,
			"max":[
				3.3641812801361084,
				-5.628622531890869,
				-2.1923155784606934
			],
			"min":[
				1.1447408199310303,
				-8.420510292053223,
				-4.123311996459961
			],
			"type":"VEC3"
		},
		{
			"bufferView":59,
			"componentType":5126,
			"count":8,
			"type":"VEC3"
		},
		{
			"bufferView":60,
			"componentType":5126,
			"count":8,
			"type":"VEC2"
		},
		{
			"bufferView":61,
			"componentType":5126,
			"count":64,
			"max":[
				2.625
			],
			"min":[
				0
			],
			"type":"SCALAR"
		},
		{
			"bufferView":62,
			"componentType":5126,
			"count":64,
			"type":"VEC4"
		},
		{
			"bufferView":63,
			"componentType":5126,
			"count":61,
			"max":[
				2.5
			],
			"min":[
				0
			],
			"type":"SCALAR"
		},
		{
			"bufferView":64,
			"componentType":5126,
			"count":61,
			"type":"VEC3"
		},
		{
			"bufferView":65,
			"componentType":5126,
			"count":2,
			"max":[
				2.5
			],
			"min":[
				0
			],
			"type":"SCALAR"
		},
		{
			"bufferView":66,
			"componentType":5126,
			"count":2,
			"type":"VEC4"
		}
	],
	"bufferViews":[
		{
			"buffer":0,
			"byteLength":46188,
			"byteOffset":0,
			"target":34962
		},
		{
			"buffer":0,
			"byteLength":46188,
			"byteOffset":46188,
			"target":34962
		},
		{
			"buffer":0,
			"byteLength":30792,
			"byteOffset":92376,
			"target":34962
		},
		{
			"buffer":0,
			"byteLength":37944,
			"byteOffset":123168,
			"target":34963
		},
		{
			"buffer":0,
			"byteLength":3588,
			"byteOffset":161112,
			"target":34962
		},
		{
			"buffer":0,
			"byteLength":3588,
			"byteOffset":164700,
			"target":34962
		},
		{
			"buffer":0,
			"byteLength":2392,
			"byteOffset":168288,
			"target":34962
		},
		{
			"buffer":0,
			"byteLength":2118,
			"byteOffset":170680,
			"target":34963
		},
		{
			"buffer":0,
			"byteLength":4404,
			"byteOffset":172800,
			"target":34962
		},
		{
			"buffer":0,
			"byteLength":4404,
			"byteOffset":177204,
			"target":34962
		},
		{
			"buffer":0,
			"byteLength":2936,
			"byteOffset":181608,
			"target":34962
		},
		{
			"buffer":0,
			"byteLength":2394,
			"byteOffset":184544,
			"target":34963
		},
		{
			"buffer":0,
			"byteLength":1584,
			"byteOffset":186940,
			"target":34962
		},
		{
			"buffer":0,
			"byteLength":1584,
			"byteOffset":188524,
			"target":34962
		},
		{
			"buffer":0,
			"byteLength":1056,
			"byteOffset":190108,
			"target":34962
		},
		{
			"buffer":0,
			"byteLength":408,
			"byteOffset":191164,
			"target":34963
		},
		{
			"buffer":0,
			"byteLength":48,
			"byteOffset":191572,
			"target":34962
		},
		{
			"buffer":0,
			"byteLength":48,
			"byteOffset":191620,
			"target":34962
		},
		{
			"buffer":0,
			"byteLength":32,
			"byteOffset":191668,
			"target":34962
		},
		{
			"buffer":0,
			"byteLength":12,
			"byteOffset":191700,
			"target":34963
		},
		{
			"buffer":0,
			"byteLength":2784,
			"byteOffset":191712,
			"target":34962
		},
		{
			"buffer":0,
			"byteLength":2784,
			"byteOffset":194496,
			"target":34962
		},
		{
			"buffer":0,
			"byteLength":1856,
			"byteOffset":197280,
			"target":34962
		},
		{
			"buffer":0,
			"byteLength":696,
			"byteOffset":199136,
			"target":34963
		},
		{
			"buffer":0,
			"byteLength":48,
			"byteOffset":199832,
			"target":34962
		},
		{
			"buffer":0,
			"byteLength":48,
			"byteOffset":199880,
			"target":34962
		},
		{
			"buffer":0,
			"byteLength":32,
			"byteOffset":199928,
			"target":34962
		},
		{
			"buffer":0,
			"byteLength":12,
			"byteOffset":199960,
			"target":34963
		},
		{
			"buffer":0,
			"byteLength":403368,
			"byteOffset":199972,
			"target":34962
		},
		{
			"buffer":0,
			"byteLength":403368,
			"byteOffset":603340,
			"target":34962
		},
		{
			"buffer":0,
			"byteLength":268912,
			"byteOffset":1006708,
			"target":34962
		},
		{
			"buffer":0,
			"byteLength":348696,
			"byteOffset":1275620,
			"target":34963
		},
		{
			"buffer":0,
			"byteLength":144,
			"byteOffset":1624316,
			"target":34962
		},
		{
			"buffer":0,
			"byteLength":144,
			"byteOffset":1624460,
			"target":34962
		},
		{
			"buffer":0,
			"byteLength":96,
			"byteOffset":1624604,
			"target":34962
		},
		{
			"buffer":0,
			"byteLength":36,
			"byteOffset":1624700,
			"target":34963
		},
		{
			"buffer":0,
			"byteLength":144,
			"byteOffset":1624736,
			"target":34962
		},
		{
			"buffer":0,
			"byteLength":144,
			"byteOffset":1624880,
			"target":34962
		},
		{
			"buffer":0,
			"byteLength":96,
			"byteOffset":1625024,
			"target":34962
		},
		{
			"buffer":0,
			"byteLength":36,
			"byteOffset":1625120,
			"target":34963
		},
		{
			"buffer":0,
			"byteLength":192,
			"byteOffset":1625156,
			"target":34962
		},
		{
			"buffer":0,
			"byteLength":192,
			"byteOffset":1625348,
			"target":34962
		},
		{
			"buffer":0,
			"byteLength":128,
			"byteOffset":1625540,
			"target":34962
		},
		{
			"buffer":0,
			"byteLength":48,
			"byteOffset":1625668,
			"target":34963
		},
		{
			"buffer":0,
			"byteLength":96,
			"byteOffset":1625716,
			"target":34962
		},
		{
			"buffer":0,
			"byteLength":96,
			"byteOffset":1625812,
			"target":34962
		},
		{
			"buffer":0,
			"byteLength":64,
			"byteOffset":1625908,
			"target":34962
		},
		{
			"buffer":0,
			"byteLength":24,
			"byteOffset":1625972,
			"target":34963
		},
		{
			"buffer":0,
			"byteLength":192,
			"byteOffset":1625996,
			"target":34962
		},
		{
			"buffer":0,
			"byteLength":192,
			"byteOffset":1626188,
			"target":34962
		},
		{
			"buffer":0,
			"byteLength":128,
			"byteOffset":1626380,
			"target":34962
		},
		{
			"buffer":0,
			"byteLength":96,
			"byteOffset":1626508,
			"target":34962
		},
		{
			"buffer":0,
			"byteLength":96,
			"byteOffset":1626604,
			"target":34962
		},
		{
			"buffer":0,
			"byteLength":64,
			"byteOffset":1626700,
			"target":34962
		},
		{
			"buffer":0,
			"byteLength":192,
			"byteOffset":1626764,
			"target":34962
		},
		{
			"buffer":0,
			"byteLength":192,
			"byteOffset":1626956,
			"target":34962
		},
		{
			"buffer":0,
			"byteLength":128,
			"byteOffset":1627148,
			"target":34962
		},
		{
			"buffer":0,
			"byteLength":48,
			"byteOffset":1627276,
			"target":34963
		},
		{
			"buffer":0,
			"byteLength":96,
			"byteOffset":1627324,
			"target":34962
		},
		{
			"buffer":0,
			"byteLength":96,
			"byteOffset":1627420,
			"target":34962
		},
		{
			"buffer":0,
			"byteLength":64,
			"byteOffset":1627516,
			"target":34962
		},
		{
			"buffer":0,
			"byteLength":256,
			"byteOffset":1627580
		},
		{
			"buffer":0,
			"byteLength":1024,
			"byteOffset":1627836
		},
		{
			"buffer":0,
			"byteLength":244,
			"byteOffset":1628860
		},
		{
			"buffer":0,
			"byteLength":732,
			"byteOffset":1629104
		},
		{
			"buffer":0,
			"byteLength":8,
			"byteOffset":1629836
		},
		{
			"buffer":0,
			"byteLength":32,
			"byteOffset":1629844
		}
	],
	"buffers":[
		{
			"byteLength":1629876,
			"uri":"Shipping.bin"
		}
	]
}
